# xmcd
#
# Track frame offsets:
#	150
#	16990
#	33830
#	51571
#	64790
#	82893
#	94901
#	111337
#	130295
#	152088
#	165791
#	186906
#	201751
#	222599
#	240922
#
# Disc length: 3470 seconds
#
# Revision: 1
# Processed by: cddbd v1.5.1PL0 Copyright (c) Steve Scherf et al.
# Submitted via: audiograbber 1.83.01
#
DISCID=c60d8c0f
DTITLE=Billy Ray CYRUS - Time flies
DYEAR=2003
DGENRE=Country
TTITLE0=What else is thre
TTITLE1=Bread alone
TTITLE2=The way it is
TTITLE3=She don't love me (she don't hate me)
TTITLE4=Time flies
TTITLE5=I luv ya
TTITLE6=I still believe
TTITLE7=Without you
TTITLE8=Hard to leave
TTITLE9=Nobody
TTITLE10=Tell me
TTITLE11=Close to gone
TTITLE12=Stand still
TTITLE13=Back to Memphis
TTITLE14=Some gave all (acoustic version)
EXTD=
EXTT0=
EXTT1=
EXTT2=
EXTT3=
EXTT4=
EXTT5=
EXTT6=
EXTT7=
EXTT8=
EXTT9=
EXTT10=
EXTT11=
EXTT12=
EXTT13=
EXTT14=
PLAYORDER=
